<mxfile host="app.diagrams.net" modified="2024-02-20T09:43:05.796Z" agent="Mozilla/5.0 (Windows NT 10.0; Win64; x64) AppleWebKit/537.36 (KHTML, like Gecko) Chrome/121.0.0.0 Safari/537.36" etag="JLqbK0oyy4f1ngFu5wqU" version="22.1.16" type="device">
  <diagram name="Page-1" id="6aMqeUYQLtkBvbegMWVF">
    <mxGraphModel dx="618" dy="328" grid="1" gridSize="10" guides="1" tooltips="1" connect="1" arrows="1" fold="1" page="1" pageScale="1" pageWidth="1100" pageHeight="850" math="0" shadow="0">
      <root>
        <mxCell id="0" />
        <mxCell id="1" parent="0" />
        <mxCell id="8xRdGPMe5xYixQhcm8Q5-3" value="&lt;p style=&quot;line-height: 120%;&quot;&gt;&lt;font style=&quot;font-size: 12px;&quot;&gt;Product&lt;br&gt;&lt;br&gt;+idProduct : Int&lt;br&gt;+name : String&lt;br&gt;+brand : String&lt;br&gt;+price : Int&lt;/font&gt;&lt;/p&gt;" style="rounded=0;whiteSpace=wrap;html=1;align=left;container=1;" vertex="1" parent="1">
          <mxGeometry x="480" y="90" width="120" height="90" as="geometry">
            <mxRectangle x="480" y="90" width="120" height="120" as="alternateBounds" />
          </mxGeometry>
        </mxCell>
        <mxCell id="8xRdGPMe5xYixQhcm8Q5-4" value="" style="endArrow=classic;html=1;rounded=0;exitX=0.5;exitY=0;exitDx=0;exitDy=0;entryX=0.5;entryY=1;entryDx=0;entryDy=0;" edge="1" parent="1">
          <mxGeometry width="50" height="50" relative="1" as="geometry">
            <mxPoint x="539.71" y="380" as="sourcePoint" />
            <mxPoint x="539.71" y="340" as="targetPoint" />
            <Array as="points">
              <mxPoint x="539.71" y="380" />
            </Array>
          </mxGeometry>
        </mxCell>
        <mxCell id="8xRdGPMe5xYixQhcm8Q5-5" value="" style="endArrow=classic;html=1;rounded=0;exitX=0.5;exitY=0;exitDx=0;exitDy=0;entryX=0.5;entryY=1;entryDx=0;entryDy=0;" edge="1" parent="1" source="8xRdGPMe5xYixQhcm8Q5-7" target="8xRdGPMe5xYixQhcm8Q5-3">
          <mxGeometry width="50" height="50" relative="1" as="geometry">
            <mxPoint x="540" y="250" as="sourcePoint" />
            <mxPoint x="550" y="320" as="targetPoint" />
          </mxGeometry>
        </mxCell>
        <mxCell id="8xRdGPMe5xYixQhcm8Q5-6" value="" style="endArrow=none;html=1;rounded=0;exitX=0;exitY=0.25;exitDx=0;exitDy=0;entryX=1;entryY=0.25;entryDx=0;entryDy=0;" edge="1" parent="1" source="8xRdGPMe5xYixQhcm8Q5-3" target="8xRdGPMe5xYixQhcm8Q5-3">
          <mxGeometry width="50" height="50" relative="1" as="geometry">
            <mxPoint x="540" y="290" as="sourcePoint" />
            <mxPoint x="590" y="240" as="targetPoint" />
          </mxGeometry>
        </mxCell>
        <mxCell id="8xRdGPMe5xYixQhcm8Q5-7" value="&lt;p style=&quot;line-height: 120%;&quot;&gt;&lt;font style=&quot;font-size: 12px;&quot;&gt;Clothing&lt;br&gt;&lt;br&gt;+size : String&lt;br&gt;+material: String&lt;br&gt;+gender: String&lt;br&gt;&lt;br&gt;&lt;/font&gt;&lt;/p&gt;" style="rounded=0;whiteSpace=wrap;html=1;align=left;container=1;" vertex="1" parent="1">
          <mxGeometry x="480" y="250" width="120" height="90" as="geometry">
            <mxRectangle x="480" y="250" width="120" height="120" as="alternateBounds" />
          </mxGeometry>
        </mxCell>
        <mxCell id="8xRdGPMe5xYixQhcm8Q5-8" value="" style="endArrow=none;html=1;rounded=0;exitX=0;exitY=0.25;exitDx=0;exitDy=0;entryX=1;entryY=0.25;entryDx=0;entryDy=0;" edge="1" parent="8xRdGPMe5xYixQhcm8Q5-7">
          <mxGeometry width="50" height="50" relative="1" as="geometry">
            <mxPoint y="20" as="sourcePoint" />
            <mxPoint x="120" y="20" as="targetPoint" />
          </mxGeometry>
        </mxCell>
        <mxCell id="8xRdGPMe5xYixQhcm8Q5-10" value="&lt;p style=&quot;line-height: 120%;&quot;&gt;&lt;font style=&quot;font-size: 12px;&quot;&gt;Shirt&lt;br&gt;&lt;br&gt;&lt;br&gt;+color: String&lt;br&gt;+sleeve_type: String&lt;br&gt;&lt;br&gt;&lt;/font&gt;&lt;/p&gt;" style="rounded=0;whiteSpace=wrap;html=1;align=left;container=1;" vertex="1" parent="1">
          <mxGeometry x="480" y="380" width="120" height="90" as="geometry">
            <mxRectangle x="480" y="380" width="120" height="120" as="alternateBounds" />
          </mxGeometry>
        </mxCell>
        <mxCell id="8xRdGPMe5xYixQhcm8Q5-11" value="" style="endArrow=none;html=1;rounded=0;exitX=0;exitY=0.25;exitDx=0;exitDy=0;entryX=1;entryY=0.25;entryDx=0;entryDy=0;" edge="1" parent="8xRdGPMe5xYixQhcm8Q5-10">
          <mxGeometry width="50" height="50" relative="1" as="geometry">
            <mxPoint y="20" as="sourcePoint" />
            <mxPoint x="120" y="20" as="targetPoint" />
          </mxGeometry>
        </mxCell>
      </root>
    </mxGraphModel>
  </diagram>
</mxfile>
